<?xml version="1.0" standalone="no"?>
<!DOCTYPE svg PUBLIC "-//W3C//DTD SVG 20010904//EN"
 "http://www.w3.org/TR/2001/REC-SVG-20010904/DTD/svg10.dtd">
<svg version="1.0" xmlns="http://www.w3.org/2000/svg"
 width="279.000000pt" height="134.000000pt" viewBox="0 0 279.000000 134.000000"
 preserveAspectRatio="xMidYMid meet">
<metadata>
Created by potrace 1.15, written by Peter Selinger 2001-2017
</metadata>
<g transform="translate(0.000000,134.000000) scale(0.100000,-0.100000)"
fill="#000000" stroke="none">
<path d="M0 670 l0 -670 1395 0 1395 0 0 670 0 670 -1395 0 -1395 0 0 -670z
m570 86 l0 -325 150 -3 150 -3 0 328 0 327 85 0 85 0 0 -400 0 -400 -325 0
-325 0 0 400 0 400 90 0 90 0 0 -324z m1578 257 l-3 -68 -172 -3 -173 -2 0
-95 0 -95 145 0 145 0 0 -70 0 -70 -145 0 -145 0 0 -95 0 -95 175 0 175 0 0
-70 0 -70 -265 0 -265 0 0 328 0 327 -175 -3 -175 -3 0 -94 0 -94 148 -3 147
-3 3 -72 3 -73 -151 0 -150 0 0 -155 0 -155 -85 0 -85 0 0 400 0 400 525 0
526 0 -3 -67z"/>
</g>
</svg>
